<svg width="664" height="622" viewBox="0 0 664 622" fill="none" xmlns="http://www.w3.org/2000/svg">
<path d="M285.697 353.126H266.737L270.458 330.648C270.796 328.622 269.884 326.579 268.27 325.69C267.697 325.364 267.053 325.19 266.409 325.19C265.01 325.19 263.718 325.972 262.95 327.28L239.815 367.359C239.057 368.667 238.946 370.364 239.516 371.803C240.167 373.447 241.64 374.507 243.266 374.507H262.226L258.506 396.958C258.16 398.977 259.049 401.02 260.676 401.939C261.246 402.272 261.897 402.453 262.551 402.453C263.926 402.453 265.208 401.684 266.016 400.349L289.162 360.24C289.913 358.912 290.021 357.262 289.444 355.806C288.766 354.182 287.297 353.126 285.697 353.126Z" fill="white"/>
<path d="M458.44 254.697C457.232 254.697 456.253 255.68 456.253 256.884V325.539C456.239 345.444 440.044 361.629 420.135 361.629H343.114C342.064 354.917 336.234 349.765 329.227 349.765H323.82C322.743 347.729 320.606 346.333 318.151 346.333C314.618 346.333 311.74 349.208 311.74 352.74V353.716H305.488C304.28 353.716 303.301 354.699 303.301 355.903C303.301 357.114 304.28 358.09 305.488 358.09H311.74V369.546H305.488C304.28 369.546 303.301 370.529 303.301 371.733C303.301 372.941 304.28 373.92 305.488 373.92H311.74V374.896C311.74 378.438 314.615 381.306 318.151 381.306C320.606 381.306 322.746 379.918 323.82 377.882H329.227C336.234 377.882 342.064 372.729 343.114 366.007H420.135C442.463 366.007 460.627 347.843 460.627 325.522V256.884C460.627 255.68 459.644 254.697 458.44 254.697ZM320.177 374.899C320.177 376.023 319.264 376.929 318.147 376.929C317.027 376.929 316.114 376.02 316.114 374.899V352.74C316.114 351.62 317.027 350.711 318.147 350.711C319.264 350.711 320.177 351.62 320.177 352.74V374.899Z" fill="white"/>
<path d="M473.149 188.994C460.68 163.346 445.612 151.441 429.581 154.567C417.341 156.972 406.979 167.74 401.833 176.237C398.496 181.735 397.463 185.884 397.919 187.417C398.258 188.581 397.593 189.792 396.44 190.137C395.279 190.483 394.061 189.819 393.716 188.655C392.817 185.599 394.313 181.322 395.923 177.964C365.498 170.011 362.731 152.927 362.627 152.182C362.456 150.988 363.288 149.881 364.492 149.713C365.683 149.539 366.786 150.371 366.961 151.558C367.004 151.81 369.805 166.958 398.07 173.993C398.07 173.986 398.08 173.972 398.083 173.966C403.474 165.083 413.279 154.839 425.365 151.125C407.274 128.597 372.184 99.4201 326.225 130.579C334.413 136.03 339.304 142.33 339.642 142.773C340.38 143.736 340.192 145.111 339.23 145.842C338.274 146.573 336.898 146.392 336.164 145.43C336.033 145.262 322.79 128.248 303.706 126.99C291.966 126.215 280.326 131.499 269.129 142.699C260.038 151.79 256.462 160.444 258.499 168.417C263.339 187.353 297.497 197.561 297.843 197.661C299.007 198 299.668 199.211 299.332 200.375C299.05 201.335 298.175 201.952 297.232 201.952C297.024 201.952 296.82 201.918 296.612 201.858C295.112 201.422 259.71 190.822 254.262 169.501C253.551 166.717 253.38 163.892 253.749 161.034C241.237 164.58 222.848 172.064 217.514 186.263C214.187 195.112 216.35 205.635 223.935 217.567C230.784 207.436 239.466 201.948 239.862 201.697C240.888 201.059 242.236 201.371 242.881 202.398C243.518 203.424 243.206 204.769 242.183 205.41C242.082 205.474 232.324 211.67 225.87 222.692C218.078 236.053 214.653 257.85 242.572 285.776C257.355 300.552 272.329 308.042 287.092 308.042H287.253C301.734 307.985 313.196 300.72 320.274 294.608C311.445 294.313 305.457 293.722 304.585 293.638C303.384 293.514 302.509 292.438 302.633 291.237C302.76 290.036 303.827 289.154 305.035 289.284C305.816 289.358 383.642 296.983 408.123 269.614C411.927 265.361 414.218 260.416 415.02 254.834C415.02 254.814 415.02 254.794 415.026 254.777C415.603 250.712 415.389 246.317 414.366 241.594C412.651 233.685 408.401 227.734 401.716 223.9C380.207 211.555 340.286 224.047 338.633 224.581C336.855 225.262 317.278 232.601 297.326 233.379C299.134 237.68 301.908 245.734 301.539 253.821C310.526 251.242 336.117 245.341 355.425 254.932C356.505 255.472 356.951 256.783 356.414 257.863C355.878 258.947 354.563 259.39 353.483 258.853C334.185 249.276 306.9 256.746 300.915 258.585C300.402 260.862 299.574 263.093 298.316 265.169C293.512 273.083 283.697 277.101 269.136 277.101C267.928 277.101 266.948 276.125 266.948 274.914C266.948 273.706 267.928 272.727 269.136 272.727C282.06 272.727 290.621 269.426 294.572 262.902C300.66 252.865 294.539 237.747 292.563 233.433C281.315 233.232 270.397 230.605 262.933 223.142C262.085 222.29 262.085 220.904 262.933 220.046C263.789 219.197 265.171 219.197 266.029 220.046C285.924 239.941 336.61 220.676 337.123 220.475C337.153 220.465 337.194 220.451 337.23 220.438C337.63 220.307 340.112 219.505 343.97 218.519C336.492 212.263 328.945 203.072 328.207 191.161C322.759 188.286 300.939 175.74 298.514 158.314C298.343 157.12 299.181 156.013 300.375 155.845C301.57 155.681 302.676 156.513 302.844 157.713C304.746 171.369 321.364 182.224 328.298 186.203C328.559 183.506 329.166 180.768 330.136 178.018C330.535 176.874 331.786 176.274 332.923 176.676C334.061 177.075 334.664 178.326 334.262 179.47C333.051 182.915 332.467 186.317 332.524 189.587C332.534 189.711 332.541 189.836 332.531 189.963C332.87 202.187 341.685 211.451 349.387 217.241C363.841 214.091 387.949 210.965 403.893 220.106C407.452 222.149 410.414 224.708 412.776 227.747C433.355 217.899 440.641 202.787 440.715 202.636C441.225 201.542 442.526 201.066 443.62 201.579C444.713 202.093 445.183 203.397 444.67 204.494C444.348 205.182 436.76 220.924 415.221 231.431C416.764 234.198 417.908 237.281 418.643 240.672C419.585 245.023 419.904 249.135 419.629 253.016C434.73 252.741 465.443 249.913 476.53 232.168C483.091 221.646 481.957 207.121 473.149 188.994Z" fill="white"/>
<g clip-path="url(#clip0_664_3)">
<path d="M154.962 504.229C147.063 504.229 139 498.936 139 485.498V461.229H151.867V484.603C151.867 491.036 154.066 493.072 158.138 493.072C163.921 493.072 167.26 487.453 168.074 485.01V461.229H180.941V503.578H168.074V496.248C167.26 498.284 162.943 504.229 154.962 504.229ZM215.228 460.578C223.127 460.578 231.19 465.871 231.19 479.309V503.578H218.322V480.205C218.322 473.771 216.124 471.735 212.052 471.735C206.269 471.735 202.93 477.354 202.116 479.797V503.578H189.248V461.229H202.116V468.559C202.93 466.523 207.247 460.578 215.228 460.578ZM262.789 460.496C272.48 460.496 283.637 467.744 283.637 482.322C283.637 497.47 272.48 504.392 262.789 504.392C256.273 504.392 252.446 500.809 251.876 499.343V519.052H239.008V494.538V461.229H251.876V465.138C252.446 464.243 256.273 460.496 262.789 460.496ZM260.915 493.072C266.453 493.072 271.177 489.326 271.177 482.322C271.177 475.563 266.453 471.816 260.915 471.816C255.622 471.816 251.306 475.481 251.306 482.322C251.306 489.407 255.622 493.072 260.915 493.072ZM303.509 446V503.578H290.641V446H303.509ZM327.289 504.229C319.389 504.229 311.326 498.936 311.326 485.498V461.229H324.194V484.603C324.194 491.036 326.392 493.072 330.466 493.072C336.247 493.072 339.587 487.453 340.4 485.01V461.229H353.268V503.578H340.4V496.248C339.587 498.284 335.269 504.229 327.289 504.229ZM392.034 461.229H404.902V503.578C404.902 516.445 391.87 520.355 382.424 520.355C377.944 520.355 373.872 519.622 371.266 518.237V507.731C373.872 509.116 377.782 509.686 382.424 509.686C389.997 509.686 392.034 505.777 392.034 503.578V499.343C391.463 500.809 387.635 504.392 381.12 504.392C371.43 504.392 360.272 497.47 360.272 482.322C360.272 467.744 371.43 460.496 381.12 460.496C387.635 460.496 391.463 464.243 392.034 465.138V461.229ZM382.993 493.072C388.287 493.072 392.604 489.407 392.604 482.322C392.604 475.481 388.287 471.816 382.993 471.816C377.455 471.816 372.732 475.563 372.732 482.322C372.732 489.326 377.455 493.072 382.993 493.072ZM443.666 461.229H456.534V503.578C456.534 516.445 443.504 520.355 434.056 520.355C429.577 520.355 425.506 519.622 422.899 518.237V507.731C425.506 509.116 429.414 509.686 434.056 509.686C441.631 509.686 443.666 505.777 443.666 503.578V499.343C443.097 500.809 439.269 504.392 432.754 504.392C423.062 504.392 411.905 497.47 411.905 482.322C411.905 467.744 423.062 460.496 432.754 460.496C439.269 460.496 443.097 464.243 443.666 465.138V461.229ZM434.627 493.072C439.921 493.072 444.236 489.407 444.236 482.322C444.236 475.481 439.921 471.816 434.627 471.816C429.089 471.816 424.365 475.563 424.365 482.322C424.365 489.326 429.089 493.072 434.627 493.072ZM485.852 460.496C495.463 460.496 508.9 467.744 506.212 486.883H476.65C478.116 491.281 481.943 493.561 487.074 493.561C492.287 493.561 493.914 492.421 496.846 491.199L503.931 498.04C500.186 501.705 495.136 504.392 486.586 504.392C476.079 504.392 463.538 497.144 463.538 482.567C463.538 467.744 476.242 460.496 485.852 460.496ZM485.852 471.491C482.187 471.491 478.441 473.608 476.813 477.843H494.81C493.507 473.608 489.518 471.491 485.852 471.491ZM544 446H556.868V466.686V503.578H544V499.343C543.431 500.809 539.603 504.392 533.087 504.392C523.396 504.392 512.239 497.47 512.239 482.322C512.239 467.744 523.396 460.496 533.087 460.496C539.603 460.496 543.431 464.243 544 465.138V446ZM534.961 493.072C540.254 493.072 544.57 489.407 544.57 482.322C544.57 475.481 540.254 471.816 534.961 471.816C529.423 471.816 524.698 475.563 524.698 482.322C524.698 489.326 529.423 493.072 534.961 493.072Z" fill="white"/>
</g>
<defs>
<clipPath id="clip0_664_3">
<rect width="418" height="74.7519" fill="white" transform="translate(139 446)"/>
</clipPath>
</defs>
</svg>
